<svg width="22" height="20" viewBox="0 0 22 20" fill="none" xmlns="http://www.w3.org/2000/svg">
<path d="M4.32659 0.23877C4.74207 0.23877 5.09974 0.54044 5.17922 0.9574C5.21013 1.21975 5.43249 1.41746 5.69665 1.41746H20.4326C21.166 1.41746 21.7513 2.16334 21.5453 2.91512L19.5944 9.98871C19.4535 10.497 18.9983 10.8469 18.4817 10.8469H8.09107C7.53738 10.8469 7.11998 11.3501 7.22227 11.8943C7.30084 12.3122 7.66583 12.615 8.09107 12.615H18.4889C18.9694 12.615 19.356 13.0091 19.356 13.499C19.356 13.9889 18.9694 14.383 18.4889 14.383H6.60629C6.22333 14.383 5.86566 14.081 5.78618 13.6647L3.95489 3.85852C3.75442 2.78502 2.81741 2.0068 1.72536 2.0068C1.24666 2.0068 0.858276 1.61083 0.858276 1.12278C0.858276 0.634734 1.24666 0.23877 1.72536 0.23877H4.32659ZM5.4827 17.3297C5.4827 16.3536 6.25946 15.5617 7.21686 15.5617C8.17426 15.5617 8.95102 16.3536 8.95102 17.3297C8.95102 18.3058 8.17426 19.0977 7.21686 19.0977C6.25946 19.0977 5.4827 18.3058 5.4827 17.3297ZM19.356 17.3297C19.356 18.3058 18.5792 19.0977 17.6218 19.0977C16.6644 19.0977 15.8877 18.3058 15.8877 17.3297C15.8877 16.3536 16.6644 15.5617 17.6218 15.5617C18.5792 15.5617 19.356 16.3536 19.356 17.3297Z" fill="#FF8F52"/>
</svg>
